<?xml version="1.0" encoding="utf-8"?>
<!DOCTYPE svg PUBLIC "-//W3C//DTD SVG 1.1//EN" "http://www.w3.org/Graphics/SVG/1.1/DTD/svg11.dtd">
<svg version="1.1" xmlns="http://www.w3.org/2000/svg" xmlns:xlink="http://www.w3.org/1999/xlink" x="0px" y="0px" width="260px" height="260px" viewBox="0 0 260 260" enable-background="new 0 0 260 260" xml:space="preserve">
<path opacity="0.4" fill-rule="evenodd" clip-rule="evenodd" fill="#F2672A" d="M130.7,259.381
	c71.165,0,129.2-58.04,129.2-129.2c0-71.163-58.035-129.202-129.2-129.202c-71.16,0-129.2,58.04-129.2,129.202
	C1.5,201.341,59.54,259.381,130.7,259.381z"/>
<path fill-rule="evenodd" clip-rule="evenodd" fill="#F2672A" d="M130.738,193.294c-34.599,0-62.66-28.103-62.66-62.755
	c0-34.653,28.061-62.755,62.66-62.755c34.601,0,62.657,28.102,62.657,62.755C193.396,165.191,165.339,193.294,130.738,193.294z"/>
<path fill-rule="evenodd" clip-rule="evenodd" fill="#FFFFFF" d="M100.485,104.56l5.585-5.584
	c2.252-2.252,5.938-2.252,8.193,0l17.131,17.128l17.13-17.128c2.253-2.252,5.94-2.252,8.193,0l5.585,5.584
	c2.252,2.255,2.252,5.939,0,8.195l-17.131,17.128l17.131,17.13c2.252,2.253,2.252,5.941,0,8.193l-5.585,5.585
	c-2.253,2.257-5.94,2.257-8.193,0l-17.13-17.131l-17.131,17.131c-2.254,2.257-5.94,2.257-8.193,0l-5.585-5.585
	c-2.254-2.252-2.254-5.94,0-8.193l17.128-17.13l-17.128-17.128C98.23,110.499,98.23,106.815,100.485,104.56z"/>
</svg>
