<?xml version="1.0" encoding="utf-8"?>
<!DOCTYPE svg PUBLIC "-//W3C//DTD SVG 1.1//EN" "http://www.w3.org/Graphics/SVG/1.1/DTD/svg11.dtd">
<svg version="1.1" xmlns="http://www.w3.org/2000/svg" xmlns:xlink="http://www.w3.org/1999/xlink" x="0px" y="0px" width="260px" height="260px" viewBox="0 0 260 260" enable-background="new 0 0 260 260" xml:space="preserve">
<path opacity="0.4" fill-rule="evenodd" clip-rule="evenodd" fill="#B8B458" d="M130.7,260.896
	c72,0,130.714-58.72,130.714-130.714c0-71.997-58.715-130.717-130.714-130.717c-71.995,0-130.715,58.72-130.715,130.717
	C-0.015,202.176,58.705,260.896,130.7,260.896z"/>
<path fill-rule="evenodd" clip-rule="evenodd" fill="#B8B458" d="M130.88,193.985c-32.789,0-59.676-25.322-62.173-57.469
	l-10.431-10.431c-7.949-7.95-7.949-20.952,0-28.899l0.002-0.002c6.307-6.307,15.795-7.608,23.417-3.905
	c11.416-14.623,29.203-24.027,49.186-24.027c11.359,0,22.01,3.042,31.183,8.348l26.517-26.625c7.521-7.547,19.855-7.532,27.392,0
	l0,0c7.529,7.532,7.513,19.846,0,27.39l-28.006,28.116c3.393,7.69,5.282,16.194,5.282,25.136
	C193.247,166.053,165.319,193.985,130.88,193.985L130.88,193.985z M114.936,136.333L81.48,102.879
	c-4.806-4.805-12.706-4.803-17.509,0.002c-4.806,4.803-4.806,12.704,0,17.509l40.024,40.024l0.325,0.427
	c0.309,0.404,0.643,0.789,1.003,1.148c4.184,4.186,11.035,4.423,15.472,0.495l0.178-0.155l0.188-0.147
	c0.393-0.311,0.768-0.642,1.122-0.994c0.317-0.319,0.618-0.658,0.9-1.006l0.262-0.328l86.82-87.173
	c4.378-4.396,4.406-11.614,0.009-16.01c-4.379-4.379-11.608-4.408-15.986-0.012L114.936,136.333z"/>
<path fill-rule="evenodd" clip-rule="evenodd" fill="#FFFFFF" d="M114.936,136.333L81.48,102.879
	c-4.806-4.805-12.706-4.803-17.509,0.002c-4.806,4.803-4.806,12.704,0,17.509l40.024,40.024l0.325,0.427
	c0.309,0.404,0.643,0.789,1.003,1.148c4.184,4.186,11.035,4.423,15.472,0.495l0.178-0.155l0.188-0.147
	c0.393-0.311,0.768-0.642,1.122-0.994c0.317-0.319,0.618-0.658,0.9-1.006l0.262-0.328l86.82-87.173
	c4.378-4.396,4.406-11.614,0.009-16.01c-4.379-4.379-11.608-4.408-15.986-0.012L114.936,136.333z"/>
</svg>
