<?xml version="1.0" encoding="utf-8"?>

<!DOCTYPE svg PUBLIC "-//W3C//DTD SVG 1.1//EN" "http://www.w3.org/Graphics/SVG/1.1/DTD/svg11.dtd">
<svg version="1.1" xmlns="http://www.w3.org/2000/svg" xmlns:xlink="http://www.w3.org/1999/xlink" x="0px" y="0px"
	 width="590.03px" height="162.68px" viewBox="0 0 590.03 162.68" enable-background="new 0 0 590.03 162.68" xml:space="preserve">
<g>
	<path fill="#231F20" d="M21.264,55.951c7.187,0,12.841,1.717,16.962,5.152c4.122,3.435,6.184,8.164,6.184,14.188
		c0,6.024-2.062,10.753-6.184,14.188c-4.121,3.435-9.775,5.152-16.962,5.152H7.551v16.805h-7.927V55.951H21.264L21.264,55.951z
		 M21.026,87.736c5.021,0,8.852-1.07,11.493-3.21c2.643-2.14,3.964-5.218,3.964-9.234s-1.321-7.094-3.964-9.234
		c-2.642-2.14-6.473-3.21-11.493-3.21H7.551v24.889H21.026L21.026,87.736z"/>
	<path fill="#231F20" d="M73.087,111.912c-4.175,0-7.927-0.925-11.256-2.774c-3.329-1.849-5.932-4.399-7.808-7.649
		c-1.876-3.249-2.814-6.936-2.814-11.057c0-4.122,0.938-7.808,2.814-11.058s4.479-5.787,7.808-7.609
		c3.329-1.823,7.081-2.735,11.256-2.735S81,69.941,84.303,71.765c3.303,1.823,5.892,4.359,7.768,7.609s2.814,6.936,2.814,11.058
		c0,4.121-0.938,7.808-2.814,11.057c-1.876,3.25-4.465,5.801-7.768,7.649C81,110.987,77.262,111.912,73.087,111.912L73.087,111.912z
		 M73.087,105.254c2.694,0,5.112-0.621,7.252-1.863c2.141-1.241,3.818-2.984,5.034-5.23c1.215-2.246,1.822-4.822,1.822-7.729
		s-0.607-5.482-1.822-7.729c-1.216-2.246-2.894-3.977-5.034-5.192c-2.14-1.215-4.558-1.823-7.252-1.823
		c-2.695,0-5.113,0.607-7.253,1.823c-2.141,1.215-3.831,2.946-5.073,5.192c-1.241,2.246-1.862,4.822-1.862,7.729
		s0.621,5.482,1.862,7.729c1.242,2.246,2.933,3.989,5.073,5.23C67.974,104.633,70.392,105.254,73.087,105.254L73.087,105.254z"/>
	<polygon fill="#231F20" points="168.022,69.426 152.328,111.438 145.036,111.438 132.908,79.572 120.622,111.438 113.33,111.438 
		97.714,69.426 104.927,69.426 117.134,102.877 129.817,69.426 136.237,69.426 148.681,103.035 161.206,69.426 168.022,69.426 	"/>
	<path fill="#231F20" d="M213.283,90.869c0,0.586-0.053,1.359-0.159,2.32h-34.399c0.48,3.732,2.12,6.732,4.92,8.999
		s6.28,3.399,10.439,3.399c5.066,0,9.146-1.706,12.239-5.119l4.24,4.96c-1.92,2.239-4.307,3.946-7.16,5.12
		c-2.853,1.172-6.039,1.76-9.56,1.76c-4.479,0-8.452-0.92-11.919-2.76s-6.146-4.414-8.04-7.721c-1.893-3.307-2.84-7.039-2.84-11.199
		c0-4.105,0.92-7.813,2.76-11.12c1.84-3.306,4.374-5.879,7.6-7.719c3.228-1.84,6.867-2.76,10.92-2.76c4.054,0,7.667,0.92,10.84,2.76
		c3.173,1.84,5.653,4.413,7.439,7.719C212.389,82.816,213.283,86.603,213.283,90.869L213.283,90.869z M192.324,75.51
		c-3.68,0-6.76,1.12-9.239,3.36c-2.48,2.24-3.934,5.173-4.36,8.799h27.199c-0.427-3.573-1.88-6.493-4.36-8.759
		C199.083,76.643,196.003,75.51,192.324,75.51L192.324,75.51z"/>
	<path fill="#231F20" d="M231.513,76.481c1.321-2.431,3.276-4.28,5.866-5.548c2.589-1.269,5.733-1.903,9.433-1.903v7.372
		c-0.423-0.053-1.004-0.079-1.744-0.079c-4.122,0-7.358,1.229-9.71,3.686c-2.352,2.457-3.527,5.958-3.527,10.503v20.926h-7.609
		V69.426h7.292V76.481L231.513,76.481z"/>
	<path fill="#231F20" d="M344.699,73.114c3.857,0,7.346,0.885,10.463,2.655c3.117,1.77,5.563,4.253,7.332,7.45
		c1.771,3.197,2.656,6.831,2.656,10.899s-0.885,7.689-2.656,10.859c-1.77,3.17-4.215,5.654-7.332,7.451s-6.605,2.695-10.463,2.695
		c-3.699,0-7.041-0.886-10.027-2.656c-2.984-1.77-5.297-4.24-6.936-7.411v9.749h-3.805V55.993h3.963v26.871
		c1.639-3.064,3.938-5.456,6.896-7.173S341.053,73.114,344.699,73.114L344.699,73.114z M344.461,111.558
		c3.172,0,6.025-0.739,8.561-2.22c2.537-1.479,4.531-3.54,5.984-6.183c1.455-2.642,2.182-5.654,2.182-9.036
		s-0.727-6.394-2.182-9.036c-1.453-2.642-3.447-4.703-5.984-6.183c-2.535-1.479-5.389-2.22-8.561-2.22c-3.17,0-6.01,0.74-8.52,2.22
		c-2.512,1.479-4.492,3.541-5.945,6.183c-1.453,2.643-2.18,5.654-2.18,9.036s0.727,6.395,2.18,9.036
		c1.453,2.643,3.434,4.703,5.945,6.183C338.451,110.818,341.291,111.558,344.461,111.558L344.461,111.558z"/>
	<path fill="#231F20" d="M392.037,73.114c5.125,0,9.063,1.308,11.811,3.923s4.121,6.46,4.121,11.533v26.236h-3.805v-7.371
		c-1.32,2.431-3.25,4.32-5.785,5.668c-2.537,1.348-5.576,2.021-9.115,2.021c-4.598,0-8.23-1.084-10.9-3.25
		c-2.668-2.167-4.002-5.02-4.002-8.561c0-3.436,1.229-6.223,3.686-8.363c2.457-2.14,6.381-3.21,11.771-3.21h14.188v-3.329
		c0-3.857-1.043-6.791-3.131-8.798c-2.086-2.008-5.139-3.012-9.154-3.012c-2.748,0-5.377,0.476-7.887,1.427s-4.639,2.22-6.381,3.805
		l-1.982-2.854c2.061-1.85,4.545-3.29,7.451-4.32S388.867,73.114,392.037,73.114L392.037,73.114z M389.818,111.875
		c3.434,0,6.354-0.793,8.758-2.379c2.404-1.585,4.215-3.883,5.43-6.896v-7.768h-14.109c-4.068,0-7.016,0.739-8.838,2.22
		c-1.822,1.479-2.734,3.514-2.734,6.103c0,2.695,1.004,4.822,3.012,6.382C383.344,111.095,386.172,111.875,389.818,111.875
		L389.818,111.875z"/>
	<path fill="#231F20" d="M444.918,73.114c5.178,0,9.273,1.506,12.285,4.518c3.012,3.012,4.518,7.346,4.518,12.999v24.176h-3.963
		V90.948c0-4.649-1.176-8.19-3.527-10.621c-2.352-2.431-5.641-3.646-9.867-3.646c-4.863,0-8.693,1.453-11.494,4.36
		s-4.201,6.817-4.201,11.731v22.035h-3.963V73.431h3.805v8.957c1.426-2.906,3.553-5.178,6.381-6.816
		C437.717,73.933,441.061,73.114,444.918,73.114L444.918,73.114z"/>
	<polygon fill="#231F20" points="493.037,92.692 482.256,102.521 482.256,114.807 478.293,114.807 478.293,55.993 482.256,55.993 
		482.256,97.607 508.732,73.431 513.805,73.431 495.971,90.156 515.549,114.807 510.635,114.807 493.037,92.692 	"/>
	<polygon fill-rule="evenodd" clip-rule="evenodd" fill="#231F20" points="497.488,9.665 285.85,9.665 285.85,7.347 497.488,7.347 
		497.488,9.665 	"/>
	<polygon fill-rule="evenodd" clip-rule="evenodd" fill="#231F20" points="555.902,163.068 285.85,163.068 285.85,160.75 
		555.902,160.75 555.902,163.068 	"/>
	<polygon fill-rule="evenodd" clip-rule="evenodd" fill="#231F20" points="288.17,7.366 288.17,163.068 285.852,163.068 
		285.852,7.366 288.17,7.366 	"/>
	<polygon fill-rule="evenodd" clip-rule="evenodd" fill="#231F20" points="555.82,73.446 555.82,163.068 553.502,163.068 
		553.502,73.446 555.82,73.446 	"/>
	<polygon fill-rule="evenodd" clip-rule="evenodd" fill="#231F20" points="589.65,2.312 533.516,40.12 532.209,38.205 
		588.344,0.397 589.65,2.312 	"/>
</g>
</svg>
